<?xml version="1.0" encoding="UTF-8"?>
<svg width="512pt" height="512pt" viewBox="-64 0 512 512" xmlns="http://www.w3.org/2000/svg">
    <path d="m256 80h-32v-48h-64v48h-32v-80h128z" fill="#62808c"/>
    <path d="m304 512h-224c-26.508 0-48-21.492-48-48v-336h320v336c0 26.508-21.492 48-48 48z" fill="#e76e54"/>
    <path d="m384 160h-384v-64c0-17.672 14.328-32 32-32h320c17.672 0 32 14.328 32 32z" fill="#77959e"/>
    <path d="m260 260c-6.2461-6.2461-16.375-6.2461-22.625 0l-41.375 41.375-41.375-41.375c-6.25-6.2461-16.379-6.2461-22.625 0s-6.2461 16.375 0 22.625l41.375 41.375-41.375 41.375c-6.2461 6.25-6.2461 16.379 0 22.625s16.375 6.2461 22.625 0l41.375-41.375 41.375 41.375c6.25 6.2461 16.379 6.2461 22.625 0s6.2461-16.375 0-22.625l-41.375-41.375 41.375-41.375c6.2461-6.25 6.2461-16.379 0-22.625z"
          fill="#fff"/>
</svg>
