<?xml version="1.0" encoding="UTF-8"?>
<svg enable-background="new 0 0 512 512" version="1.1" viewBox="0 0 512 512" xml:space="preserve"
     xmlns="http://www.w3.org/2000/svg">
<path d="M0,192l246.528,156.896c2.816,2.08,6.144,3.104,9.472,3.104s6.656-1.024,9.472-3.104L512,192  L265.6,3.2c-5.696-4.256-13.504-4.256-19.2,0L0,192z"
      fill="#64B5F6"/>
    <path d="M416,0H96C78.368,0,64,14.368,64,32v352c0,8.832,7.168,16,16,16h352c8.832,0,16-7.168,16-16V32  C448,14.368,433.664,0,416,0z"
          fill="#ECEFF1"/>
    <g fill="#90A4AE">
	<path d="m144 96h224c8.832 0 16-7.168 16-16s-7.168-16-16-16h-224c-8.832 0-16 7.168-16 16s7.168 16 16 16z"/>
        <path d="m368 128h-224c-8.832 0-16 7.168-16 16s7.168 16 16 16h224c8.832 0 16-7.168 16-16s-7.168-16-16-16z"/>
        <path d="m272 192h-128c-8.832 0-16 7.168-16 16s7.168 16 16 16h128c8.832 0 16-7.168 16-16s-7.168-16-16-16z"/>
</g>
    <path d="M265.472,348.896c-2.816,2.08-6.144,3.104-9.472,3.104s-6.656-1.024-9.472-3.104L0,192v288  c0,17.664,14.336,32,32,32h448c17.664,0,32-14.336,32-32V192L265.472,348.896z"
          fill="#1E88E5"/>
    <path d="m480 512h-448c-17.952 0-32-14.048-32-32 0-5.088 2.432-9.888 6.528-12.896l240-160c2.816-2.08 6.144-3.104 9.472-3.104s6.656 1.024 9.472 3.104l240 160c4.096 3.008 6.528 7.808 6.528 12.896 0 17.952-14.048 32-32 32z"
          fill="#2196F3"/>
</svg>
