<?xml version="1.0" encoding="UTF-8"?>
<svg width="70px" height="70px" viewBox="0 0 512 512" xmlns="http://www.w3.org/2000/svg">
    <path d="m7.9 256c0-137 111.1-248.1 248.1-248.1s248.1 111.1 248.1 248.1-111.1 248.1-248.1 248.1-248.1-111.1-248.1-248.1z"
          fill="#32BEA6"/>
    <path d="m391.5 214.5h-94.5v-93.9c0-4-3.2-7.2-7.2-7.2h-68.1c-4 0-7.2 3.2-7.2 7.2v93.9h-93.9c-4 0-7.2 3.2-7.2 7.2v69.2c0 4 3.2 7.2 7.2 7.2h93.9v93.4c0 4 3.2 7.2 7.2 7.2h68.1c4 0 7.2-3.2 7.2-7.2v-93.4h94.5c4 0 7.2-3.2 7.2-7.2v-69.2c0-4-3.3-7.2-7.2-7.2z"
          fill="#FFF"/>
</svg>
