<?xml version="1.0" encoding="UTF-8"?>
<svg fill="none" viewBox="0 0 127 106" xmlns="http://www.w3.org/2000/svg">
    <g clip-path="url(#a)">
        <path d="m126.94 90.294-5.721-72.217h-20.632c-1.4256-9.2442-6.9962-18.078-19.057-18.078s-17.612 8.8333-19.132 18.078h-19.994l-0.2439 3.2308c-1.8111-0.6159-3.7131-0.9253-5.6269-0.9151-9.6596 0-14.33 6.7418-15.793 14.044h-16.112l-4.6328 58.005c-0.15756 1.7329 0.051827 3.4794 0.61462 5.1267 0.5628 1.6473 1.4665 3.1584 2.6526 4.4364 1.1862 1.278 2.6284 2.294 4.2335 2.982 1.6051 0.688 3.3373 1.033 5.0848 1.013h99.803c2.022 0.021 4.027-0.38 5.884-1.178s3.526-1.975 4.897-3.456c1.372-1.4797 2.417-3.23 3.067-5.1372s0.891-3.9289 0.707-5.9346zm-45.41-82.171c7.1274 0 9.8283 5.173 10.822 9.8978h-21.645c0.9941-4.6688 3.7138-9.8418 10.822-9.8418v-0.05602zm-45.016 20.375c0.8941-0.0537 1.7901 0.0688 2.6366 0.3604s1.6268 0.7467 2.2964 1.3391l-0.3376 4.1832h-11.967c0.3571-1.6728 1.2883-3.1694 2.6335-4.2328 1.3453-1.0633 3.0205-1.6269 4.7377-1.5938v-0.0561zm-25.659 66.577c-0.23-0.2488-0.4016-0.5455-0.5021-0.8685-0.1006-0.3231-0.1277-0.6643-0.0793-0.999l3.845-48.555h26.259l-3.695 45.642c-0.1505 1.8503 0.0467 3.7122 0.5814 5.4905h-24.646c-0.3278 0.0145-0.6549-0.0414-0.9591-0.1638-0.3042-0.1225-0.5784-0.3086-0.804-0.5458zm104.77-0.635c-0.418 0.4355-0.923 0.7799-1.481 1.0114-0.559 0.2315-1.159 0.3449-1.764 0.3332h-61.128c-0.6052 0.014-1.2066-0.0984-1.7655-0.33s-1.0628-0.5772-1.4793-1.0146c-0.413-0.4434-0.7268-0.9689-0.9208-1.5419s-0.2637-1.1805-0.2046-1.7823l4.9704-62.823h59.889l4.97 62.823c0.065 0.5991 1e-3 1.205-0.187 1.7779-0.187 0.5728-0.494 1.0998-0.9 1.5463z" fill="#00214D"/>
        <path d="m96.821 42.822h-18.212c-1.0894 0-2.1342 0.4308-2.9045 1.1978-0.7704 0.767-1.2031 1.8073-1.2031 2.892s0.4327 2.125 1.2031 2.892c0.7703 0.767 1.8151 1.1979 2.9045 1.1979h18.212c1.0895 0 2.1343-0.4309 2.9046-1.1979 0.7706-0.767 1.2036-1.8073 1.2036-2.892s-0.433-2.125-1.2036-2.892c-0.7703-0.767-1.8151-1.1978-2.9046-1.1978z" fill="#00214D"/>
        <path d="m96.821 57.893h-18.212c-1.0894 0-2.1342 0.4309-2.9045 1.1979-0.7704 0.767-1.2031 1.8072-1.2031 2.8919s0.4327 2.125 1.2031 2.892c0.7703 0.767 1.8151 1.1979 2.9045 1.1979h18.212c1.0895 0 2.1343-0.4309 2.9046-1.1979 0.7706-0.767 1.2036-1.8073 1.2036-2.892s-0.433-2.1249-1.2036-2.8919c-0.7703-0.767-1.8151-1.1979-2.9046-1.1979z" fill="#00214D"/>
        <path d="m96.821 73.076h-18.212c-1.0894 0-2.1342 0.4309-2.9045 1.1979-0.7704 0.767-1.2031 1.8072-1.2031 2.8919s0.4327 2.125 1.2031 2.892c0.7703 0.767 1.8151 1.1979 2.9045 1.1979h18.212c1.0895 0 2.1343-0.4309 2.9046-1.1979 0.7706-0.767 1.2036-1.8073 1.2036-2.892s-0.433-2.1249-1.2036-2.8919c-0.7703-0.767-1.8151-1.1979-2.9046-1.1979z" fill="#00214D"/>
        <path d="m63.922 44.017c-0.7674 0.7696-1.198 1.8101-1.198 2.8946s0.4306 2.125 1.198 2.8946c0.3786 0.3791 0.8286 0.6798 1.3244 0.885 0.4957 0.2051 1.0273 0.3105 1.5641 0.3103 0.8132 1e-3 1.6085-0.2383 2.285-0.6876 0.6764-0.4493 1.2038-1.0885 1.5151-1.8365 0.3114-0.7479 0.3927-1.5711 0.2338-2.3652-0.159-0.794-0.5511-1.5232-1.1266-2.0952-0.7876-0.7286-1.8229-1.1334-2.8979-1.1334s-2.1103 0.4048-2.8979 1.1334z" fill="#00EBC7"/>
        <path d="m63.922 59.144c-0.7674 0.7696-1.198 1.8102-1.198 2.8947s0.4306 2.125 1.198 2.8946c0.7714 0.7554 1.8067 1.1838 2.8885 1.1952 1.0922-0.0152 2.1378-0.4423 2.926-1.1952 0.7497-0.7799 1.1723-1.8151 1.1817-2.8946-6e-4 -1.0849-0.4322-2.1254-1.2004-2.8947-0.7876-0.7285-1.8229-1.1334-2.8979-1.1334s-2.1103 0.4049-2.8979 1.1334z" fill="#00EBC7"/>
        <path d="m63.922 74.271c-0.5655 0.5743-0.9492 1.3012-1.1037 2.0905-0.1545 0.7894-0.073 1.6066 0.2346 2.3502 0.3075 0.7437 0.8275 1.3811 1.4955 1.8333 0.6679 0.4522 1.4545 0.6992 2.2621 0.7105 1.0914-0.0096 2.1354-0.4455 2.9073-1.2138 0.3816-0.3783 0.6845-0.8279 0.8912-1.3231 0.2066-0.4951 0.313-1.0261 0.313-1.5622 0-0.5362-0.1064-1.0672-0.313-1.5623-0.2067-0.4951-0.5096-0.9448-0.8912-1.3231-0.7876-0.7285-1.8229-1.1334-2.8979-1.1334s-2.1103 0.4049-2.8979 1.1334z" fill="#00EBC7"/>
    </g>
    <defs>
        <clipPath id="a">
            <rect width="127" height="106" fill="#fff"/>
        </clipPath>
    </defs>
</svg>
