<?xml version="1.0" encoding="UTF-8"?>
<svg enable-background="new 0 0 495.968 495.968" version="1.1" viewBox="0 0 495.97 495.97" xml:space="preserve"
     xmlns="http://www.w3.org/2000/svg">
<path d="m423.98 0h-352c-35.296 0-64 28.704-64 64v288c0 35.296 28.704 64 64 64v63.968c0 6.208 3.584 11.84 9.216 14.496 2.144 0.992 4.48 1.504 6.784 1.504 3.68 0 7.328-1.248 10.24-3.712l91.552-76.256h234.21c35.296 0 64-28.704 64-64v-288c0-35.296-28.704-64-64-64z"
      fill="#2196F3"/>
    <g fill="#FAFAFA">
	<path d="m119.98 288h-32c-8.832 0-16-7.168-16-16s7.168-16 16-16h32c8.832 0 16-7.168 16-16s-7.168-16-16-16c-26.464 0-48-21.536-48-48s21.536-48 48-48h32c8.832 0 16 7.168 16 16s-7.168 16-16 16h-32c-8.832 0-16 7.168-16 16s7.168 16 16 16c26.464 0 48 21.536 48 48s-21.536 48-48 48z"/>
        <path d="m375.98 288h-32c-8.832 0-16-7.168-16-16s7.168-16 16-16h32c8.8 0 16-7.168 16-16s-7.2-16-16-16c-26.464 0-48-21.536-48-48s21.536-48 48-48h32c8.832 0 16 7.168 16 16s-7.168 16-16 16h-32c-8.8 0-16 7.168-16 16s7.2 16 16 16c26.464 0 48 21.536 48 48s-21.536 48-48 48z"/>
        <path d="m279.98 288c-8.832 0-16-7.168-16-16v-60.224l-1.696 3.392c-5.44 10.848-23.2 10.848-28.64 0l-1.664-3.392v60.224c0 8.832-7.168 16-16 16s-16-7.168-16-16v-128c0-7.424 5.12-13.888 12.32-15.584 7.136-1.728 14.656 1.792 17.984 8.416l17.696 35.392 17.696-35.36c3.296-6.688 10.624-10.144 17.984-8.448 7.232 1.696 12.32 8.16 12.32 15.584v128c0 8.832-7.168 16-16 16z"/>
</g>
</svg>
