<svg xmlns="http://www.w3.org/2000/svg" viewBox="0 0 145 145"><defs><style>.cls-1fill:#14244b;.cls-2fill:#fff;</style></defs><title>Asset 3</title><g id="Layer_2"><g id="Black_and_White_Logo"><circle class="cls-1" cx="72.5" cy="72.5" r="72.5"/><path class="cls-2" d="M106.63,100.65l-4.3-54.51H86.88c-1.14-7-5.32-13.64-14.38-13.64S59.26,39.17,58.12,46.14H42.67l-4.3,54.51a10.86,10.86,0,0,0,11,11.85H95.68a10.86,10.86,0,0,0,10.95-11.85Zm-34.13-62c5.35,0,7.39,3.91,8.14,7.47H64.36C65.11,42.58,67.15,38.67,72.5,38.67Zm25.62,65.11a3.27,3.27,0,0,1-2.44,1H49.32a3.16,3.16,0,0,1-3.26-3.53L49.8,53.85H95.2l3.74,47.41A3.25,3.25,0,0,1,98.12,103.78Z"/></g></g></svg>
