<svg
  width="145"
  height="145"
  viewBox="0 0 145 145"
  fill="none"
  xmlns="http://www.w3.org/2000/svg"
>
  <circle
    cx="72.5"
    cy="72.5"
    r="72.5"
    fill="#00214D"
  />
  <path
    d="M90.4324 67.3892C90.4272 64.5583 89.6325 61.785 88.1378 59.381C86.6431 56.977 84.5075 55.0375 81.971 53.7804V33.1456C81.9711 32.8346 81.9098 32.5267 81.7908 32.2394C81.6718 31.952 81.4974 31.691 81.2775 31.4711C81.0576 31.2512 80.7965 31.0767 80.5092 30.9577C80.2219 30.8387 79.9139 30.7775 79.6029 30.7775H66.3968C65.7687 30.7775 65.1664 31.027 64.7223 31.4711C64.2781 31.9152 64.0286 32.5175 64.0286 33.1456V53.7804C61.4925 55.0378 59.3571 56.9774 57.8625 59.3814C56.3678 61.7853 55.5731 64.5584 55.5675 67.3892L55.5682 67.4192C55.5675 67.4413 55.5675 67.4643 55.5675 67.4864V107.361C55.5693 108.915 56.1875 110.405 57.2865 111.504C58.3854 112.603 59.8753 113.221 61.4294 113.222H84.5721C86.126 113.221 87.6156 112.602 88.7142 111.504C89.8129 110.405 90.4308 108.915 90.4324 107.361L90.4308 67.4943C90.4324 67.4753 90.4324 67.4081 90.4324 67.3892ZM85.6962 71.7142V98.6128H60.3044V71.7142H85.6962ZM77.2357 35.5137V39.1076H68.7658V35.5137H77.2357ZM67.2004 57.5703C67.6586 57.405 68.0546 57.1024 68.3346 56.7037C68.6146 56.3051 68.7648 55.8298 68.7649 55.3427V43.8441H77.2348V55.342C77.2347 55.8292 77.3849 56.3045 77.6649 56.7032C77.9449 57.1018 78.3411 57.4044 78.7994 57.5696C80.7503 58.278 82.4463 59.5509 83.6715 61.2262C84.8967 62.9015 85.5957 64.9036 85.6795 66.9774H60.3203C60.4042 64.9037 61.1032 62.9018 62.3284 61.2266C63.5536 59.5514 65.2495 58.2786 67.2004 57.5703ZM84.5728 108.486H61.4294C61.131 108.486 60.8449 108.367 60.6339 108.157C60.4229 107.946 60.3041 107.66 60.3037 107.361V103.349H85.6962V107.361C85.6962 107.659 85.5779 107.945 85.3673 108.156C85.1566 108.367 84.8709 108.486 84.5728 108.486Z"
    fill="white"
  />
  <path
    d="M79.9076 79.4113H66.0936V84.1475H79.9076V79.4113Z"
    fill="white"
  />
  <path
    d="M79.9076 86.3183H66.0936V91.0545H79.9076V86.3183Z"
    fill="white"
  />
</svg>
