<?xml version="1.0" encoding="UTF-8"?>
<svg width="76px" height="76px" enable-background="new 0 0 415.998 415.998" version="1.1" viewBox="0 0 416 416" xml:space="preserve"
     xmlns="http://www.w3.org/2000/svg">
<path d="m296.1 416h-256c-17.673 0-32-14.327-32-32v-288c0-17.673 14.327-32 32-32h256c17.673 0 32 14.327 32 32v288c-1e-3 17.673-14.327 32-32 32z"
      fill="#756556"/>
    <path d="m296.1 95.999h-256v219.58c0 2.829 1.124 5.542 3.124 7.542l57.751 57.751c2 2 4.714 3.124 7.542 3.124h187.58l1e-3 -288z"
          fill="#F4F5F5"/>
    <path d="m229.39 49.864c-7.367-2.118-13.038-7.789-15.156-15.156-5.764-20.044-24.237-34.708-46.136-34.708-21.898 0-40.37 14.663-46.135 34.706-2.122 7.376-7.806 13.039-15.181 15.165-19.914 5.739-34.513 24.024-34.681 45.746v32.382h192v-32c-1e-3 -21.897-14.665-40.371-34.709-46.135zm-61.085 14.136c-8.837 0-16-7.164-16-16 0-8.837 7.163-16 16-16s16 7.163 16 16c0 8.836-7.164 16-16 16z"
          fill="#CDD7DE"/>
    <path d="m72.105 95.999v32h192v-32h-192z" fill="#C0CCD5"/>
    <rect x="72.106" y="125.6" width="192" height="2.4" fill="#B5BFC8"/>
    <path d="m104.1 341.33c0-11.782-9.551-21.334-21.334-21.334h-41.675c0.524 1.146 1.224 2.216 2.133 3.124l57.751 57.751c0.909 0.909 1.978 1.609 3.124 2.133l1e-3 -41.674z"
          fill="#E6E6E5"/>
    <g fill="#5885C4">
	<rect x="72.106" y="160" width="192" height="32"/>
        <rect x="72.106" y="224" width="192" height="32"/>
        <rect x="72.106" y="288" width="80" height="32"/>
</g>
    <polygon points="193.38 265.06 184.1 274.34 184.1 287.89 216.15 319.94 229.02 319.93 238.63 310.31" fill="#EDE6D1"/>
    <polygon points="199.95 303.74 216.15 319.94 229.02 319.93 238.63 310.31 216.01 287.69" fill="#E3D2AC"/>
    <rect transform="matrix(-.7071 .7071 -.7071 -.7071 637.5 180.75)" x="188.96" y="190.4" width="184.72"
          height="63.999" fill="#F8C467"/>
    <rect transform="matrix(-.7071 .7071 -.7071 -.7071 664.86 191.97)" x="200.32" y="217.68" width="184.72" height="32"
          fill="#F5A730"/>
    <rect transform="matrix(-.7071 .7071 -.7071 -.7071 714.13 -4.3583)" x="341.97" y="113.72" width="32" height="63.999"
          fill="#CED8DF"/>
    <polygon points="184.1 287.89 184.1 320 216.21 320" fill="#010101"/>
    <path d="m346.64 111.79 45.255 45.255 11.314-11.314c6.245-6.245 6.245-16.382 0-22.627l-22.627-22.627c-6.245-6.245-16.382-6.245-22.627 0l-11.315 11.313z"
          fill="#EAA6A6"/>
    <rect transform="matrix(-.7071 .7071 -.7071 -.7071 741.4 7.0342)" x="353.24" y="141.07" width="32" height="32"
          fill="#90A1B2"/>
    <path d="m369.27 134.42 22.627 22.627 11.314-11.314c6.245-6.245 6.245-16.382 0-22.627l-11.314-11.314-22.627 22.628z"
          fill="#B1807F"/>
</svg>
