<?xml version="1.0" encoding="UTF-8"?>
<svg viewBox="0 0 54 45" xmlns="http://www.w3.org/2000/svg">
    <path d="m53.912 38.332-2.4286-30.658h-8.7589c-0.6051-3.9244-2.97-7.6744-8.0899-7.6744-5.12 0-7.4769 3.75-8.1219 7.6744h-8.4881l-0.1035 1.3716c-0.7689-0.26149-1.5763-0.3928-2.3888-0.38847-4.1007 0-6.0834 2.8621-6.7045 5.9619h-6.8399l-1.9668 24.625c-0.066887 0.7356 0.022002 1.4771 0.26092 2.1764 0.23892 0.6993 0.62255 1.341 1.1261 1.8834 0.50356 0.5425 1.1158 0.9737 1.7972 1.2659 0.68141 0.2921 1.4168 0.4386 2.1586 0.43h42.369c0.8587 0.0091 1.7097-0.1613 2.4981-0.5001s1.4967-0.8386 2.079-1.4669c0.5823-0.6284 1.0258-1.3714 1.3017-2.1811 0.2759-0.8096 0.3782-1.6679 0.3002-2.5194zm-19.277-34.883c3.0257 0 4.1724 2.1961 4.5944 4.2019h-9.1889c0.4221-1.982 1.5766-4.1781 4.5945-4.1781v-0.02379zm-19.11 8.6495c0.3795-0.0228 0.7599 0.0292 1.1192 0.153 0.3594 0.1238 0.6907 0.317 0.9749 0.5685l-0.1433 1.7759h-5.0801c0.1516-0.7102 0.5469-1.3456 1.118-1.797s1.2822-0.6906 2.0113-0.6766v-0.0238zm-10.893 28.264c-0.09766-0.1056-0.17048-0.2315-0.21317-0.3687-0.0427-0.1371-0.0542-0.282-0.03367-0.4241l1.6323-20.613h11.148l-1.5686 19.376c-0.0639 0.7855 0.0199 1.576 0.2469 2.3309h-10.463c-0.13916 0.0062-0.27802-0.0176-0.40717-0.0695-0.12914-0.052-0.24554-0.1311-0.34132-0.2318zm44.479-0.2695c-0.1774 0.1849-0.3914 0.3311-0.6285 0.4293-0.2372 0.0983-0.4922 0.1465-0.749 0.1415h-25.95c-0.2569 0.0059-0.5122-0.0418-0.7495-0.1401-0.2372-0.0983-0.4512-0.245-0.628-0.4307-0.1753-0.1882-0.3085-0.4113-0.3909-0.6546-0.0823-0.2433-0.1119-0.5011-0.0868-0.7566l2.11-26.67h25.425l2.1101 26.67c0.0272 0.2543 1e-4 0.5115-0.0795 0.7547s-0.2099 0.4669-0.3824 0.6565z"
          fill="#fff"/>
    <path d="m41.124 18.179h-7.7317c-0.4625 0-0.906 0.1829-1.2331 0.5085-0.327 0.3256-0.5107 0.7672-0.5107 1.2277s0.1837 0.9021 0.5107 1.2277c0.3271 0.3256 0.7706 0.5086 1.2331 0.5086h7.7317c0.4624 0 0.906-0.183 1.233-0.5086s0.5108-0.7672 0.5108-1.2277-0.1838-0.9021-0.5108-1.2277-0.7706-0.5085-1.233-0.5085z"
          fill="#fff"/>
    <path d="m41.124 24.577h-7.7317c-0.4625 0-0.906 0.1829-1.2331 0.5085-0.327 0.3256-0.5107 0.7672-0.5107 1.2277s0.1837 0.9021 0.5107 1.2277c0.3271 0.3256 0.7706 0.5086 1.2331 0.5086h7.7317c0.4624 0 0.906-0.183 1.233-0.5086s0.5108-0.7672 0.5108-1.2277-0.1838-0.9021-0.5108-1.2277-0.7706-0.5085-1.233-0.5085z"
          fill="#fff"/>
    <path d="m41.124 31.022h-7.7317c-0.4625 0-0.906 0.1829-1.2331 0.5085-0.327 0.3256-0.5107 0.7673-0.5107 1.2277 0 0.4605 0.1837 0.9021 0.5107 1.2277 0.3271 0.3257 0.7706 0.5086 1.2331 0.5086h7.7317c0.4624 0 0.906-0.1829 1.233-0.5086 0.327-0.3256 0.5108-0.7672 0.5108-1.2277 0-0.4604-0.1838-0.9021-0.5108-1.2277s-0.7706-0.5085-1.233-0.5085z"
          fill="#fff"/>
    <path d="m27.158 18.686c-0.3258 0.3267-0.5086 0.7685-0.5086 1.2289s0.1828 0.9021 0.5086 1.2288c0.1607 0.1609 0.3517 0.2886 0.5622 0.3757 0.2104 0.0871 0.4361 0.1318 0.664 0.1317 0.3452 5e-4 0.6828-0.1011 0.97-0.2919 0.2872-0.1907 0.5111-0.4621 0.6433-0.7796 0.1321-0.3175 0.1667-0.667 0.0992-1.0041s-0.2339-0.6467-0.4783-0.8895c-0.3343-0.3093-0.7738-0.4811-1.2302-0.4811s-0.8959 0.1718-1.2302 0.4811z"
          fill="#00EBC7"/>
    <path d="m27.158 25.108c-0.3258 0.3268-0.5086 0.7685-0.5086 1.2289s0.1828 0.9021 0.5086 1.2288c0.3274 0.3207 0.767 0.5026 1.2262 0.5074 0.4637-0.0064 0.9076-0.1878 1.2422-0.5074 0.3182-0.331 0.4977-0.7705 0.5016-1.2288-2e-4 -0.4605-0.1834-0.9023-0.5096-1.2289-0.3343-0.3092-0.7738-0.4811-1.2302-0.4811s-0.8959 0.1719-1.2302 0.4811z"
          fill="#00EBC7"/>
    <path d="m27.158 31.53c-0.2401 0.2438-0.403 0.5523-0.4686 0.8874s-0.0309 0.6821 0.0996 0.9977c0.1306 0.3157 0.3513 0.5864 0.6349 0.7783 0.2835 0.192 0.6175 0.2969 0.9603 0.3017 0.4634-0.0041 0.9066-0.1892 1.2342-0.5154 0.1621-0.1606 0.2906-0.3514 0.3784-0.5616 0.0877-0.2102 0.1328-0.4356 0.1328-0.6633 0-0.2276-0.0451-0.453-0.1328-0.6632-0.0878-0.2102-0.2163-0.401-0.3784-0.5616-0.3343-0.3093-0.7738-0.4812-1.2302-0.4812s-0.8958 0.1719-1.2302 0.4812z"
          fill="#00EBC7"/>
</svg>
