<svg
  width="145"
  height="145"
  viewBox="0 0 145 145"
  fill="none"
  xmlns="http://www.w3.org/2000/svg"
>
  <circle
    cx="72.5"
    cy="72.5"
    r="72.5"
    fill="#00214D"
  />
  <path
    d="M107.074 67.4627C107.074 67.1517 107.013 66.8438 106.894 66.5565C106.775 66.2692 106.601 66.0081 106.381 65.7882C106.161 65.5683 105.9 65.3939 105.612 65.2748C105.325 65.1558 105.017 65.0946 104.706 65.0946H80.2673V47.9883H104.212V43.252H80.2673V41.1467H104.212V36.4105H57.6376V36.4272H57.3755V65.0955H41.2936C40.9827 65.0955 40.6747 65.1567 40.3874 65.2757C40.1001 65.3947 39.839 65.5691 39.6191 65.789C39.3992 66.009 39.2248 66.27 39.1058 66.5573C38.9868 66.8447 38.9255 67.1526 38.9255 67.4636C38.9255 79.5843 46.0955 90.1564 56.6485 95.6173H47.5432V100.354H98.4566V95.6173H89.352C99.9043 90.1555 107.074 79.5836 107.074 67.4627ZM75.5311 65.0946H74.216V41.1467H75.5311V65.0946ZM68.1638 65.0946V41.1467H69.4798V65.0955H68.1638V65.0946ZM62.1118 41.1467H63.4275V65.0955H62.1118V41.1467ZM43.77 69.8308H102.23C100.938 83.8153 88.3227 94.8269 73.0009 94.8269C57.6778 94.827 45.0614 83.8162 43.77 69.8308Z"
    fill="white"
  />
  <path
    d="M90.2024 102.853H55.7985V107.59H90.2024V102.853Z"
    fill="white"
  />
</svg>
