<svg
  id="color"
  height="64"
  viewBox="0 0 24 24"
  width="64"
  xmlns="http://www.w3.org/2000/svg"
><path
  d="m18.25 7.5h-12.5c-.414 0-.75-.336-.75-.75v-4c0-1.517 1.233-2.75 2.75-2.75h8.5c1.517 0 2.75 1.233 2.75 2.75v4c0 .414-.336.75-.75.75z"
  fill="#eceff1"
/><path
  d="m21.25 18h-18.5c-1.517 0-2.75-1.233-2.75-2.75v-6.5c0-1.517 1.233-2.75 2.75-2.75h18.5c1.517 0 2.75 1.233 2.75 2.75v6.5c0 1.517-1.233 2.75-2.75 2.75z"
  fill="#607d8b"
  /><path
    d="m16.25 24h-8.5c-1.517 0-2.75-1.233-2.75-2.75v-7.5c0-.414.336-.75.75-.75h12.5c.414 0 .75.336.75.75v7.5c0 1.517-1.233 2.75-2.75 2.75z"
    fill="#eceff1"
    /><g fill="#90a4ae"><path d="m14.25 21h-5.5c-.414 0-.75-.336-.75-.75s.336-.75.75-.75h5.5c.414 0 .75.336.75.75s-.336.75-.75.75z"/><path d="m10.25 18h-1.5c-.414 0-.75-.336-.75-.75s.336-.75.75-.75h1.5c.414 0 .75.336.75.75s-.336.75-.75.75z"/></g>
</svg>
