<?xml version="1.0" encoding="UTF-8"?>
<svg viewBox="0 0 30 30" xmlns="http://www.w3.org/2000/svg">
    <path d="m15 25.417c-2.0602 0-4.0741-0.6109-5.7871-1.7555-1.713-1.1446-3.0482-2.7715-3.8366-4.6749s-0.9947-3.9978-0.59277-6.0184c0.40193-2.0207 1.394-3.8768 2.8508-5.3336s3.3128-2.4489 5.3336-2.8508c2.0206-0.40193 4.115-0.19564 6.0184 0.59277s3.5303 2.1235 4.6749 3.8366c1.1446 1.713 1.7555 3.7269 1.7555 5.7871-0.0033 2.7617-1.1018 5.4093-3.0546 7.3621s-4.6004 3.0513-7.3621 3.0546zm0-16.667c-1.2361 0-2.4445 0.36656-3.4723 1.0533-1.0278 0.68674-1.8288 1.6628-2.3019 2.8049-0.47305 1.142-0.59682 2.3987-0.35566 3.6111 0.24116 1.2123 0.83641 2.326 1.7105 3.2001 0.8741 0.874 1.9878 1.4693 3.2001 1.7105 1.2124 0.2411 2.4691 0.1173 3.6111-0.3557 1.1421-0.4731 2.1182-1.2741 2.8049-2.3019 0.6868-1.0278 1.0533-2.2362 1.0533-3.4724 0-1.6576-0.6584-3.2473-1.8305-4.4194-1.1721-1.1721-2.7618-1.8306-4.4195-1.8306z" fill="#FFFFFE"/>
    <path d="m17.083 0.41669h-4.1667v6.25h4.1667v-6.25z" fill="#FFFFFE"/>
    <path d="m17.083 23.333h-4.1667v6.25h4.1667v-6.25z" fill="#FFFFFE"/>
    <path d="m29.583 12.917h-6.25v4.1667h6.25v-4.1667z" fill="#FFFFFE"/>
    <path d="m6.6667 12.917h-6.25v4.1667h6.25v-4.1667z" fill="#FFFFFE"/>
    <path d="m23.942 3.1108-4.1661 4.166 2.9463 2.9462 4.1661-4.166-2.9463-2.9463z" fill="#FFFFFE"/>
    <path d="m6.0561 3.1106-2.9463 2.9463 4.166 4.1661 2.9463-2.9463-4.1661-4.166z" fill="#FFFFFE"/>
    <path d="m7.2757 19.777-4.166 4.166 2.9463 2.9463 4.1661-4.166-2.9463-2.9463z" fill="#FFFFFE"/>
    <path d="m22.724 19.777-2.9463 2.9463 4.1661 4.166 2.9463-2.9463-4.1661-4.166z" fill="#FFFFFE"/>
</svg>
