<?xml version="1.0" encoding="UTF-8"?>
<svg width="512pt" height="512pt" viewBox="0 0 512 512" xmlns="http://www.w3.org/2000/svg">
    <path d="m437.02 74.98c-48.352-48.352-112.64-74.98-181.02-74.98-68.383 0-132.67 26.629-181.02 74.98-48.352 48.352-74.98 112.64-74.98 181.02 0 68.379 26.629 132.67 74.98 181.02 48.352 48.352 112.64 74.98 181.02 74.98 68.379 0 132.67-26.629 181.02-74.98 48.352-48.352 74.98-112.64 74.98-181.02 0-68.383-26.629-132.67-74.98-181.02zm-308.68 367.41c10.707-61.648 64.129-107.12 127.66-107.12 63.535 0 116.95 45.473 127.66 107.12-36.348 24.973-80.324 39.613-127.66 39.613s-91.312-14.641-127.66-39.613zm46.262-218.52c0-44.887 36.516-81.398 81.398-81.398s81.398 36.516 81.398 81.398c0 44.883-36.516 81.398-81.398 81.398s-81.398-36.516-81.398-81.398zm235.04 197.71c-8.0742-28.699-24.109-54.738-46.586-75.078-13.789-12.48-29.484-22.328-46.359-29.27 30.5-19.895 50.703-54.312 50.703-93.363 0-61.426-49.977-111.4-111.4-111.4s-111.4 49.973-111.4 111.4c0 39.051 20.203 73.469 50.699 93.363-16.871 6.9414-32.57 16.785-46.359 29.266-22.473 20.34-38.512 46.379-46.586 75.078-44.473-41.301-72.355-100.24-72.355-165.57 0-124.62 101.38-226 226-226s226 101.38 226 226c0 65.34-27.883 124.28-72.355 165.58z"/>
</svg>
