<svg
  width="145"
  height="145"
  viewBox="0 0 145 145"
  fill="none"
  xmlns="http://www.w3.org/2000/svg"
>
  <circle
    cx="72.5"
    cy="72.5"
    r="72.5"
    fill="#00214D"
  />
  <path
    d="M105.84 53.956L109.936 49.8672C111.91 47.8962 112.998 45.2668 112.998 42.4633C112.998 39.66 111.91 37.0306 109.936 35.0596C105.849 30.9802 99.2004 30.9802 95.114 35.0596L91.2595 38.9075C89.5487 35.4386 85.97 33.0443 81.8491 33.0442C76.069 33.0442 71.3666 37.7406 71.3666 43.5128V43.5313L71.455 54.7383C70.0159 54.5306 68.5328 54.5447 67.0519 54.7956C63.8185 55.3434 60.9339 56.9462 58.7979 59.3215C58.7221 59.3808 58.648 59.4434 58.5784 59.5133C58.4049 59.687 58.2648 59.8814 58.1573 60.0882C57.7067 60.6659 57.2961 61.2813 56.9323 61.933L33.4913 103.936C33.4233 104.058 33.3663 104.185 33.3211 104.317C32.5975 106.425 33.1269 108.715 34.7029 110.293C35.8159 111.407 37.2841 112 38.7943 112C39.4266 112 40.0668 111.896 40.6908 111.683C40.8208 111.638 40.9466 111.582 41.0667 111.516L55.2691 103.66C55.2702 103.659 55.2713 103.659 55.2726 103.658L73.1295 93.7806L73.1328 93.7787L83.1956 88.2125C87.0936 86.0564 89.7221 82.2942 90.4066 77.8909C90.6141 76.5563 90.6305 75.2248 90.4667 73.9288L102.055 74.2086C102.074 74.2091 102.093 74.2092 102.112 74.2092C107.892 74.2092 112.594 69.513 112.594 63.7406C112.594 59.2787 109.785 55.46 105.84 53.956ZM85.7749 77.1707C85.3146 80.1316 83.5475 82.6612 80.9268 84.1108L72.4476 88.801L66.1205 82.4848C65.2045 81.5703 63.7206 81.5716 62.8062 82.4876C61.8917 83.4037 61.8929 84.8875 62.809 85.802L68.1786 91.1623L54.5874 98.6801L51.7241 95.8216C50.808 94.9071 49.324 94.9084 48.4097 95.8244C47.4952 96.7405 47.4965 98.2243 48.4125 99.1388L50.3184 101.041L39.0248 107.289C38.5086 107.397 38.1545 107.116 38.0189 106.98C37.885 106.846 37.6072 106.497 37.7128 105.99L48.1443 87.2977C48.5961 87.7276 49.1762 87.9443 49.7575 87.9443C50.3579 87.9443 50.9584 87.7149 51.4161 87.2563C52.3306 86.3403 52.3294 84.8564 51.4132 83.9419L50.5165 83.0468L60.6487 64.8915L69.7046 73.9317C70.1621 74.3884 70.7613 74.6167 71.3603 74.6167C71.9608 74.6167 72.5612 74.3873 73.019 73.9289C73.9333 73.0129 73.9323 71.5289 73.016 70.6145L63.6199 61.2346C64.8387 60.3121 66.2754 59.6811 67.8347 59.4169C70.6579 58.9386 73.4896 59.7409 75.6033 61.6177C75.7462 61.7447 75.887 61.8774 76.022 62.0119L83.165 69.1425L83.1652 69.1427C83.2334 69.2108 83.3003 69.2796 83.3658 69.3491C85.3441 71.4429 86.2222 74.2937 85.7749 77.1707ZM102.138 69.5219L88.9759 69.2041C88.3923 68.0993 87.6559 67.0647 86.7728 66.13C86.6758 66.0275 86.5771 65.926 86.4764 65.8255H86.4766L79.3334 58.6947C79.1345 58.4961 78.9267 58.3005 78.7158 58.1132C77.9229 57.4091 77.0635 56.8055 76.1547 56.307L76.0536 43.5042C76.058 40.3203 78.656 37.7315 81.8488 37.7313C85.0348 37.7313 87.6342 40.3173 87.6436 43.4956C87.6464 44.442 88.2179 45.2937 89.0926 45.6549C89.9668 46.0158 90.9731 45.8158 91.6429 45.1473L98.4253 38.3766C100.686 36.1201 104.364 36.1201 106.624 38.3766C107.711 39.462 108.31 40.9134 108.31 42.4632C108.31 44.013 107.711 45.4643 106.624 46.5497L99.204 53.9569C98.533 54.6269 98.3317 55.6353 98.6942 56.5115C99.0567 57.3877 99.9115 57.9593 100.86 57.9593H102.112C105.307 57.9593 107.907 60.5527 107.907 63.7404C107.907 66.9197 105.321 69.5077 102.138 69.5219Z"
    fill="white"
  />
</svg>
