<svg width="145" height="145" viewBox="0 0 145 145" fill="none" xmlns="http://www.w3.org/2000/svg">
    <circle cx="72.5" cy="72.5" r="72.5" fill="#00214D"/>
    <path d="M105.501 85.5031C104.193 84.1943 102.499 83.34 100.669 83.0658C98.8386 82.7916 96.9689 83.1121 95.3346 83.9801L92.905 81.5506C94.633 77.6025 96.637 69.5332 93.2332 61.2999C91.8499 58.0223 89.8307 55.0513 87.2922 52.5588L75.485 40.7516C75.4815 40.7481 75.479 40.7445 75.4756 40.7411C75.4728 40.7384 75.4693 40.7367 75.4669 40.7341L75.321 40.5882C75.2697 40.5369 75.2099 40.4997 75.155 40.4545C73.3917 38.8603 71.0011 38.01 68.1929 38.01C62.1565 38.01 54.492 41.9243 48.1916 48.2257C43.7502 52.6663 40.4585 57.7813 38.9206 62.6292C37.1988 68.0597 37.8334 72.6339 40.7086 75.5087C41.0152 75.8104 41.3443 76.0882 41.6932 76.3398L52.6033 87.25C57.71 92.3573 64.0261 95.056 70.8683 95.057H70.8701C74.5586 95.0564 78.2093 94.3137 81.6048 92.8731L84.0222 95.2904C83.3228 96.6078 82.9762 98.0837 83.0159 99.5747C83.0557 101.066 83.4805 102.521 84.2491 103.799C85.0177 105.078 86.1039 106.135 87.4022 106.869C88.7005 107.604 90.1666 107.99 91.6581 107.99H91.6589C93.8005 107.991 95.8662 107.197 97.454 105.759C99.0419 104.322 100.038 102.346 100.249 100.215C101.878 100.053 103.427 99.4315 104.716 98.4236C106.005 97.4157 106.981 96.0624 107.532 94.5212C108.082 92.98 108.183 91.3142 107.823 89.7178C107.464 88.1213 106.658 86.6597 105.501 85.5031ZM43.8873 64.2036C45.1768 60.1364 48.0135 55.7706 51.875 51.9082C57.1533 46.6299 63.5589 43.2192 68.1929 43.2192C69.7802 43.2192 70.9906 43.6247 71.7912 44.4252C74.7313 47.3653 72.3816 56.2681 64.3092 64.3417C59.0298 69.62 52.6252 73.0307 47.992 73.0307H47.991C46.403 73.0307 45.1925 72.6243 44.392 71.8237C42.9825 70.4137 42.7984 67.6368 43.8873 64.2036ZM70.8691 89.8464C65.3605 89.8464 60.4546 87.7322 56.2877 83.5661L50.7104 77.9888C56.2217 77.0468 62.6045 73.4128 67.9933 68.0251C73.6171 62.4002 77.0844 56.0328 77.9502 50.585L83.6089 56.2439C85.6618 58.2516 87.2963 60.6466 88.4176 63.2901C91.6782 71.1771 88.6009 78.8727 87.7048 80.394L80.4413 87.6575C79.5948 88.141 75.7629 89.8464 70.8718 89.8464H70.8691ZM101.818 94.0448C101.353 94.5012 100.769 94.8178 100.133 94.9584C99.4963 95.099 98.8332 95.058 98.219 94.8402C97.7538 94.6718 97.2502 94.6395 96.7672 94.7469C96.2843 94.8544 95.8419 95.0972 95.4919 95.4469C95.1419 95.7966 94.8988 96.2387 94.7909 96.7216C94.6831 97.2045 94.715 97.7081 94.883 98.1735C95.1043 98.7874 95.1469 99.4515 95.006 100.089C94.8651 100.726 94.5464 101.31 94.0869 101.773C93.769 102.093 93.3908 102.347 92.9742 102.52C92.5576 102.692 92.1108 102.78 91.6598 102.779H91.6591C90.9835 102.779 90.3227 102.58 89.7597 102.207C89.1966 101.833 88.7561 101.302 88.4934 100.68C88.2308 100.057 88.1575 99.3712 88.2829 98.7073C88.4083 98.0434 88.7267 97.4312 89.1983 96.9474C89.2285 96.9196 89.2598 96.8894 89.2834 96.8668C89.5253 96.6249 89.7172 96.3377 89.8482 96.0216C89.9791 95.7055 90.0465 95.3667 90.0465 95.0246C90.0465 94.6824 89.9791 94.3437 89.8482 94.0276C89.7172 93.7115 89.5253 93.4243 89.2834 93.1824L85.7842 89.6814L89.7264 85.7385L93.2264 89.2385C93.4682 89.4805 93.7553 89.6725 94.0713 89.8035C94.3873 89.9345 94.726 90.0019 95.0681 90.0019C95.4102 90.0019 95.7489 89.9345 96.0649 89.8035C96.3809 89.6725 96.668 89.4805 96.9097 89.2385C96.9306 89.2187 96.9628 89.184 96.9914 89.1535C97.6479 88.5422 98.5132 88.205 99.4102 88.2109C100.307 88.2167 101.168 88.565 101.817 89.1847C102.46 89.8297 102.821 90.7034 102.822 91.6144C102.822 92.5254 102.461 93.3993 101.818 94.0448Z" fill="white"/>
    <path d="M55.8664 62.4947C56.2085 62.4952 56.5474 62.4281 56.8635 62.2971C57.1796 62.1662 57.4667 61.974 57.7082 61.7316L61.6996 57.7399C62.1847 57.2507 62.4563 56.5893 62.4549 55.9004C62.4535 55.2115 62.1792 54.5512 61.6921 54.064C61.205 53.5769 60.5447 53.3026 59.8557 53.3012C59.1668 53.2998 58.5054 53.5713 58.0163 54.0565L54.0249 58.0482C53.6607 58.4125 53.4127 58.8766 53.3122 59.3818C53.2117 59.887 53.2633 60.4107 53.4604 60.8866C53.6575 61.3625 53.9913 61.7693 54.4195 62.0555C54.8478 62.3418 55.3513 62.4946 55.8664 62.4947H55.8664Z" fill="white"/>
</svg>
