<?xml version="1.0" encoding="iso-8859-1"?>
<!-- Generator: Adobe Illustrator 19.0.0, SVG Export Plug-In . SVG Version: 6.00 Build 0)  -->
<svg version="1.1" id="Capa_1" xmlns="http://www.w3.org/2000/svg" xmlns:xlink="http://www.w3.org/1999/xlink" x="0px" y="0px"
	 viewBox="0 0 415.998 415.998" style="enable-background:new 0 0 415.998 415.998;" xml:space="preserve">
<path style="fill:#756556;" d="M296.102,415.998H40.103c-17.673,0-32-14.327-32-32V95.999c0-17.673,14.327-32,32-32h255.999
	c17.673,0,32,14.327,32,32v287.999C328.101,401.671,313.775,415.998,296.102,415.998z"/>
<path style="fill:#F4F5F5;" d="M296.102,95.999H40.103V315.58c0,2.829,1.124,5.542,3.124,7.542l57.751,57.751
	c2,2,4.714,3.124,7.542,3.124h187.581L296.102,95.999L296.102,95.999z"/>
<path style="fill:#CDD7DE;" d="M229.394,49.864c-7.367-2.118-13.038-7.789-15.156-15.156C208.474,14.664,190.001,0,168.102,0
	c-21.898,0-40.37,14.663-46.135,34.706c-2.122,7.376-7.806,13.039-15.181,15.165C86.872,55.61,72.273,73.895,72.105,95.617v32.382
	h191.998v-32C264.102,74.102,249.438,55.628,229.394,49.864z M168.309,64c-8.837,0-16-7.164-16-16c0-8.837,7.163-16,16-16
	s16,7.163,16,16C184.309,56.836,177.145,64,168.309,64z"/>
<path style="fill:#C0CCD5;" d="M72.105,95.999v32h191.998v-32H72.105z"/>
<rect x="72.106" y="125.6" style="fill:#B5BFC8;" width="192" height="2.4"/>
<path style="fill:#E6E6E5;" d="M104.103,341.332c0-11.782-9.551-21.334-21.334-21.334H41.094c0.524,1.146,1.224,2.216,2.133,3.124
	l57.751,57.751c0.909,0.909,1.978,1.609,3.124,2.133L104.103,341.332L104.103,341.332z"/>
<g>
	<rect x="72.106" y="160" style="fill:#5885C4;" width="192" height="32"/>
	<rect x="72.106" y="224" style="fill:#5885C4;" width="192" height="32"/>
	<rect x="72.106" y="288" style="fill:#5885C4;" width="80" height="32"/>
</g>
<polygon style="fill:#EDE6D1;" points="193.379,265.059 184.102,274.336 184.102,287.89 216.153,319.942 229.017,319.93 
	238.634,310.314 "/>
<polygon style="fill:#E3D2AC;" points="199.953,303.741 216.153,319.942 229.017,319.93 238.634,310.314 216.006,287.686 "/>
<rect x="188.955" y="190.404" transform="matrix(-0.7071 0.7071 -0.7071 -0.7071 637.4966 180.7485)" style="fill:#F8C467;" width="184.718" height="63.999"/>
<rect x="200.316" y="217.681" transform="matrix(-0.7071 0.7071 -0.7071 -0.7071 664.8645 191.9657)" style="fill:#F5A730;" width="184.718" height="32"/>
<rect x="341.969" y="113.723" transform="matrix(-0.7071 0.7071 -0.7071 -0.7071 714.1321 -4.3583)" style="fill:#CED8DF;" width="32" height="63.999"/>
<polygon style="fill:#010101;" points="184.102,287.89 184.102,319.998 216.21,319.998 "/>
<path style="fill:#EAA6A6;" d="M346.643,111.794l45.255,45.255l11.314-11.314c6.245-6.245,6.245-16.382,0-22.627l-22.627-22.627
	c-6.245-6.245-16.382-6.245-22.627,0L346.643,111.794z"/>
<rect x="353.244" y="141.067" transform="matrix(-0.7071 0.7071 -0.7071 -0.7071 741.402 7.0342)" style="fill:#90A1B2;" width="32" height="32"/>
<path style="fill:#B1807F;" d="M369.271,134.422l22.627,22.627l11.314-11.314c6.245-6.245,6.245-16.382,0-22.627l-11.314-11.314
	L369.271,134.422z"/>
<g>
</g>
<g>
</g>
<g>
</g>
<g>
</g>
<g>
</g>
<g>
</g>
<g>
</g>
<g>
</g>
<g>
</g>
<g>
</g>
<g>
</g>
<g>
</g>
<g>
</g>
<g>
</g>
<g>
</g>
</svg>
