<svg width="39" height="59" viewBox="0 0 39 59" fill="none" xmlns="http://www.w3.org/2000/svg">
<g clip-path="url(#clip0)">
<path fill-rule="evenodd" clip-rule="evenodd" d="M27.3261 57.4344C24.9539 53.7871 23.577 49.3637 23.162 44.7936C22.8246 41.5344 22.8916 38.2093 23.2051 34.8865C23.8225 35.2365 24.5046 35.466 25.1781 35.6007C26.498 35.8609 27.806 35.7285 29.0301 35.4189C30.2553 35.0995 31.3853 34.5501 32.3905 33.8052C33.385 33.0489 34.2932 32.1364 34.8829 30.838C33.4825 30.7022 32.3083 30.7869 31.184 30.9324C30.0637 31.0733 29.0261 31.3216 28.0192 31.5727C27.0134 31.825 26.0484 32.1477 25.0625 32.475C24.5267 32.65 23.9926 32.8336 23.4047 33.0307C23.492 32.3108 23.5861 31.5909 23.6921 30.8738C23.8316 29.9664 23.9903 29.0618 24.1593 28.1578C24.8782 28.6652 25.7258 28.976 26.5604 29.1425C27.8803 29.4033 29.1877 29.2704 30.4118 28.9607C31.6376 28.6414 32.7675 28.0919 33.7722 27.347C34.7667 26.5913 35.6749 25.6782 36.2646 24.3804C34.8642 24.2446 33.6906 24.3293 32.5657 24.4742C31.4459 24.6157 30.4084 24.864 29.4009 25.1151C28.3957 25.3668 27.4307 25.6896 26.4447 26.0174C25.8075 26.2242 25.1753 26.4453 24.4473 26.685C24.7126 25.3878 25.0058 24.0946 25.3267 22.8065C26.2593 23.4895 27.336 23.894 28.4478 24.0389C29.8074 24.2509 31.2175 24.0719 32.5124 23.6128C33.813 23.1616 34.9969 22.4008 35.9363 21.4127C36.8588 20.42 37.6145 19.2138 37.7807 17.7438C36.3752 18.1035 35.2769 18.474 34.2025 18.8257L31.188 19.8638L28.208 20.9212C27.6881 21.1388 27.1466 21.2917 26.5734 21.5309C26.2423 21.6701 25.9016 21.7906 25.5455 21.9354C25.9356 20.4229 26.362 18.9177 26.8189 17.4205C27.7102 18.2478 28.9405 18.6706 30.1714 18.7274C31.5934 18.762 32.9716 18.3433 34.1453 17.6915C35.3263 17.0353 36.2952 16.1244 37.0476 15.0664C37.7829 13.9999 38.3527 12.7959 38.4372 11.3532C37.0748 11.7584 35.9981 12.2385 34.9866 12.7328C33.9769 13.2164 33.0799 13.7499 32.2028 14.2232L29.6271 15.6477C28.8702 16.0227 28.0759 16.375 27.0202 16.7756C27.4715 15.3312 27.9557 13.8954 28.4586 12.4652C29.0414 12.938 29.7382 13.1323 30.4135 13.1942C31.2021 13.2522 31.9987 13.1113 32.7097 12.788C33.4162 12.459 34.0648 11.9925 34.5348 11.364C35.015 10.7504 35.3461 10.0043 35.3847 9.11567C34.9129 9.13612 34.562 9.24124 34.1957 9.30715C33.8317 9.37192 33.5295 9.48727 33.2143 9.56455C32.6156 9.76739 32.0656 9.94467 31.5537 10.1941C31.0338 10.4299 30.5309 10.6879 29.9951 11.0078C29.5812 11.2561 29.1622 11.53 28.6678 11.8766C29.0539 10.7975 29.457 9.72421 29.876 8.65656C30.4027 8.78554 30.9703 8.71452 31.4726 8.56849C32.1439 8.36678 32.746 8.00426 33.25 7.55879C33.7677 7.12014 34.1714 6.58148 34.4996 6.00817C34.647 5.71043 34.7854 5.40815 34.8886 5.09052C34.9742 4.75983 35.0604 4.43595 35.0768 4.07742C34.7429 4.2297 34.4786 4.4172 34.2133 4.59846C33.9463 4.77688 33.6985 4.9604 33.4683 5.15416C32.9887 5.51952 32.5634 5.90817 32.1342 6.27352C31.7124 6.64853 31.3008 7.0173 30.8671 7.3781C30.6346 7.57072 30.4033 7.76505 30.1499 7.95881C30.261 7.68096 31.4499 4.81154 31.9301 3.75297C31.4323 4.67289 30.9561 5.60475 30.4872 6.54114C30.439 6.11783 30.4226 5.72918 30.4044 5.34224C30.3789 4.77801 30.3744 4.22458 30.3676 3.65922C30.3483 3.09557 30.3494 2.51884 30.2961 1.91711C30.2842 1.61653 30.253 1.30914 30.2049 0.990944C30.1595 0.671615 30.1209 0.350012 30.0087 0C29.7547 0.253986 29.5744 0.535815 29.3873 0.821052C29.2223 1.11197 29.0925 1.41766 28.9723 1.72733C28.7699 2.35633 28.6434 3.01829 28.6672 3.69672C28.678 4.37004 28.8152 5.06041 29.118 5.69339C29.3691 6.20534 29.7371 6.71217 30.2491 7.00991C30.0331 7.44629 28.6718 10.3589 28.2641 11.2817C28.2046 10.4606 28.1366 9.83274 28.043 9.23783C27.9444 8.62133 27.8191 8.0679 27.6671 7.51731C27.5305 6.96388 27.3128 6.42637 27.0843 5.836C26.942 5.54508 26.8365 5.23826 26.6528 4.91608C26.4691 4.59221 26.3245 4.25527 26.0376 3.87912C25.3822 4.47914 25.0228 5.21155 24.8601 5.97408C24.6803 6.73831 24.7387 7.53663 24.9394 8.29064C25.1475 9.04521 25.5501 9.74751 26.1 10.3174C26.6437 10.8612 27.3371 11.3169 28.2142 11.3959C27.5753 12.8431 26.9635 14.3039 26.3784 15.7761C26.1278 14.9335 25.9532 14.2818 25.7644 13.6516C25.5484 12.8453 25.3097 12.1118 25.0001 11.3629C24.69 10.6146 24.3475 9.84524 23.8696 9.05941C23.3916 8.26677 22.8332 7.4622 21.9617 6.57126C21.1924 7.573 20.9185 8.64747 20.8272 9.70773C20.7513 10.7708 20.9134 11.8351 21.3171 12.8425C21.7253 13.8442 22.3614 14.8034 23.2663 15.5256C24.0487 16.1307 25.029 16.5659 26.07 16.5415C26.0416 16.6148 26.0104 16.6864 25.9821 16.7597C25.4435 18.1529 24.9349 19.5592 24.4535 20.9752C24.271 20.6763 24.093 20.4013 23.9484 20.0984C23.8072 19.845 23.6672 19.6087 23.526 19.3865C23.4052 19.1376 23.2822 18.9058 23.1541 18.6876C22.6818 17.7779 22.2072 16.9773 21.7678 16.0983C21.3125 15.2346 20.8437 14.3522 20.2937 13.413C19.7426 12.4675 19.1445 11.4919 18.2901 10.3737C17.4997 11.5658 17.2701 12.8874 17.2797 14.1818C17.3013 15.4818 17.6465 16.7762 18.2611 17.9603C18.8599 19.149 19.8231 20.1956 20.969 20.9206C21.2632 21.0962 21.5631 21.257 21.8648 21.4019C22.1857 21.5252 22.5168 21.6224 22.8417 21.7082C23.0083 21.7445 23.1665 21.7888 23.3344 21.8138C23.5095 21.8258 23.6785 21.8434 23.8548 21.84C23.9574 21.8417 24.0589 21.8377 24.1604 21.8366C23.6677 23.3275 23.2125 24.8333 22.7918 26.3509C22.2055 25.5992 21.6476 24.9958 21.1385 24.3696L19.0872 22.0497C18.4051 21.303 17.7174 20.549 16.956 19.7547C16.1849 18.9569 15.3809 18.1416 14.306 17.2029C13.7866 18.5575 13.8762 19.9473 14.2153 21.228C14.5594 22.5184 15.2381 23.7082 16.1361 24.7083C17.0308 25.7083 18.1534 26.5288 19.4263 26.9833C20.3907 27.3629 21.4441 27.5197 22.5049 27.4067C22.2339 28.434 21.977 29.4658 21.7423 30.5051C21.5841 31.2227 21.4384 31.9449 21.2984 32.6688C20.7535 31.9818 20.2336 31.4142 19.7568 30.8272L17.7055 28.5084C17.0229 27.7606 16.3357 27.0066 15.5743 26.2134C14.8026 25.4151 13.9992 24.5997 12.9248 23.6611C12.4049 25.0157 12.494 26.4055 12.8336 27.6862C13.1771 28.976 13.8558 30.167 14.7539 31.1665C15.6491 32.1665 16.7711 32.9875 18.044 33.4415C18.9942 33.8154 20.0301 33.9751 21.0756 33.8711C20.4349 37.5093 20.0681 41.2225 20.1917 44.9891C20.2092 46.2221 20.3419 47.4568 20.4644 48.6949L20.7564 50.5467C20.8471 51.166 21.0223 51.774 21.1538 52.3894C21.4836 53.7379 21.908 55.9282 22.4324 57.2355C22.4579 57.299 24.0891 57.3653 27.3261 57.4344Z" fill="#C08D5D"/>
</g>
<g clip-path="url(#clip1)">
<path fill-rule="evenodd" clip-rule="evenodd" d="M22.9501 55.1286C22.6677 52.9716 21.7549 50.8426 20.4288 48.9702C19.4988 47.6215 18.3937 46.3789 17.1955 45.2173C17.0744 45.5509 16.8896 45.8597 16.6772 46.1296C16.2599 46.6571 15.7196 47.0315 15.1536 47.3112C14.5841 47.5876 13.976 47.7456 13.3519 47.7888C12.7283 47.8241 12.0866 47.7721 11.4408 47.4699C11.9292 46.9635 12.4032 46.6145 12.8779 46.3047C13.3496 45.9945 13.8247 45.752 14.2891 45.5206C14.7535 45.2899 15.2252 45.0993 15.7063 44.9036C15.9668 44.7961 16.2295 44.6925 16.5171 44.5766C16.2501 44.3312 15.9806 44.088 15.7074 43.8498C15.3598 43.5501 15.0057 43.2577 14.6479 42.9688C14.5393 43.3952 14.3179 43.7886 14.0547 44.1229C13.6375 44.6506 13.0972 45.0246 12.5313 45.3043C11.9615 45.5809 11.3535 45.7389 10.7296 45.7819C10.1061 45.8174 9.46427 45.7652 8.81868 45.4632C9.30705 44.9569 9.78077 44.608 10.2555 44.2978C10.7272 43.988 11.2023 43.7455 11.6669 43.5139C12.1309 43.2832 12.6026 43.0926 13.0839 42.8971C13.3934 42.7688 13.7055 42.6476 14.0602 42.5024C13.5381 42.0953 13.0067 41.6988 12.4664 41.3132C12.3336 41.8757 12.0556 42.3791 11.6799 42.7952C11.2318 43.3173 10.6375 43.7071 9.99608 43.953C9.35506 44.2038 8.65791 44.2989 7.97986 44.2282C7.30681 44.1503 6.62776 43.9371 6.08731 43.4321C6.7385 43.1125 7.27635 42.8968 7.79906 42.6816L9.28234 42.0975L10.7587 41.5319C11.0271 41.4459 11.2826 41.3282 11.5782 41.233C11.7493 41.1784 11.918 41.1136 12.1004 41.0531C11.4609 40.6046 10.8101 40.1708 10.1502 39.7499C10.0799 40.3538 9.74942 40.9141 9.29986 41.3353C8.77046 41.8102 8.11043 42.0985 7.45258 42.2318C6.79045 42.3658 6.12629 42.3341 5.49669 42.1761C4.87079 42.0094 4.26319 41.7366 3.76263 41.2155C4.41219 40.9271 4.97746 40.7601 5.52256 40.6196C6.0635 40.4756 6.57778 40.3872 7.06495 40.2824L8.50683 39.9877C8.91639 39.8845 9.33279 39.7605 9.86426 39.57C9.22367 39.1674 8.57335 38.7787 7.91775 38.3982C7.84965 38.7672 7.64781 39.0673 7.41117 39.3101C7.13013 39.5882 6.7815 39.7933 6.40619 39.9012C6.03076 40.0055 5.63268 40.0388 5.24991 39.9525C4.86807 39.8751 4.49993 39.6989 4.19671 39.3735C4.38271 39.2281 4.55028 39.1542 4.71094 39.0603C4.87037 38.9667 5.02273 38.9125 5.16767 38.8395C5.46118 38.7222 5.72785 38.611 6.00351 38.5396C6.27775 38.4605 6.55273 38.3953 6.86032 38.3429C7.09831 38.303 7.34654 38.271 7.64707 38.2423C7.1499 37.9574 6.64811 37.6802 6.14213 37.4103C5.98375 37.6304 5.7449 37.7876 5.50649 37.8952C5.18575 38.0365 4.83911 38.0942 4.50282 38.0885C4.16357 38.0898 3.83518 38.016 3.5242 37.9046C3.37148 37.8393 3.22072 37.7693 3.07836 37.682C2.93843 37.5841 2.8005 37.4889 2.67783 37.3579C2.85424 37.3074 3.01558 37.2929 3.17533 37.2757C3.33479 37.2568 3.48859 37.2461 3.63903 37.245C3.94003 37.2282 4.22791 37.2379 4.50973 37.2375C4.79188 37.2431 5.06813 37.2496 5.35019 37.246C5.50112 37.2438 5.65218 37.2425 5.81145 37.2339C5.67898 37.1644 4.29521 36.4594 3.7689 36.2128C4.25688 36.401 4.74053 36.6006 5.22286 36.8044C5.10373 36.6278 4.98379 36.4747 4.86505 36.3217C4.69154 36.0989 4.51356 35.887 4.33257 35.6698C4.15688 35.4492 3.96919 35.2303 3.79407 34.9842C3.70099 34.8661 3.61304 34.7391 3.52804 34.6025C3.4416 34.4663 3.35183 34.3315 3.28087 34.162C3.45991 34.1761 3.61998 34.2247 3.78373 34.2724C3.94093 34.3294 4.08955 34.4035 4.2358 34.4822C4.517 34.6557 4.78002 34.8663 4.99125 35.132C5.20579 35.3915 5.37778 35.6985 5.4682 36.0375C5.53893 36.3137 5.5636 36.6259 5.46561 36.9053C5.68944 37.0011 7.15276 37.6665 7.60739 37.885C7.36342 37.5535 7.18542 37.2927 7.02782 37.0361C6.86515 36.7697 6.73309 36.5186 6.61208 36.2599C6.48434 36.0051 6.39258 35.73 6.28776 35.4314C6.24741 35.2745 6.18788 35.1236 6.15311 34.9415C6.11779 34.7587 6.06336 34.5837 6.0503 34.3475C6.49433 34.3628 6.86882 34.5246 7.17828 34.7617C7.49477 34.9939 7.73179 35.3164 7.9003 35.6682C8.0662 36.0227 8.14118 36.4204 8.11713 36.8157C8.08696 37.199 7.97128 37.5974 7.66344 37.9122C8.3763 38.255 9.08325 38.6118 9.78375 38.9816C9.60543 38.5798 9.4602 38.2753 9.32738 37.9744C9.14771 37.5977 9.00028 37.2413 8.87481 36.8561C8.74975 36.4708 8.63014 36.0671 8.55671 35.6131C8.48106 35.1566 8.43215 34.6693 8.47419 34.0476C9.09199 34.1787 9.545 34.4983 9.92398 34.8718C10.2981 35.2513 10.582 35.7086 10.7556 36.2227C10.9257 36.7362 10.9952 37.3074 10.8857 37.8758C10.7847 38.36 10.5533 38.8438 10.1495 39.1725C10.1841 39.1911 10.2192 39.2082 10.2538 39.2269C10.911 39.5817 11.561 39.9513 12.2038 40.3334C12.1761 40.1605 12.1545 39.9981 12.1112 39.836C12.0826 39.6938 12.0591 39.5585 12.0406 39.4281C12.0057 39.2943 11.9772 39.1662 11.9551 39.0416C11.8393 38.5424 11.7597 38.0839 11.6414 37.607C11.5341 37.1308 11.4258 36.6431 11.3299 36.1074C11.2325 35.5689 11.1431 35.0038 11.1049 34.3012C11.7925 34.4978 12.3089 34.9257 12.7255 35.421C13.1395 35.9223 13.4285 36.5266 13.5793 37.1764C13.7376 37.8227 13.7112 38.5334 13.511 39.1812C13.4561 39.3435 13.3943 39.502 13.3266 39.655C13.2447 39.8061 13.1503 39.9506 13.0546 40.0887C13.0031 40.1566 12.9573 40.2248 12.9016 40.2888C12.8389 40.3503 12.7804 40.4118 12.7122 40.4678C12.6738 40.5018 12.6339 40.5332 12.5949 40.5657C13.2664 40.9726 13.9284 41.3973 14.5811 41.8378C14.56 41.3616 14.5761 40.951 14.5664 40.5476L14.593 38.9994C14.61 38.4941 14.6266 37.9841 14.6582 37.4348C14.6923 36.8811 14.7333 36.3101 14.8372 35.6041C15.4745 35.9505 15.8917 36.508 16.1787 37.1051C16.4668 37.7075 16.5951 38.3802 16.5784 39.0521C16.5629 39.7228 16.4025 40.3993 16.0661 40.9854C15.8227 41.4429 15.4731 41.8446 15.033 42.146C15.4696 42.4486 15.9023 42.7575 16.329 43.0765C16.6222 43.298 16.9121 43.5252 17.2004 43.755C17.1845 43.3169 17.1979 42.9323 17.1886 42.5543L17.2156 41.0065C17.2323 40.5006 17.2488 39.9908 17.2807 39.4419C17.3149 38.8878 17.3556 38.3169 17.4593 37.6112C18.0969 37.9574 18.5143 38.5147 18.801 39.112C19.0892 39.714 19.2179 40.3871 19.2009 41.0588C19.1853 41.7297 19.0252 42.4062 18.6887 42.9921C18.4488 43.4428 18.1068 43.8399 17.6755 44.1398C19.1005 45.3151 20.4456 46.6078 21.6217 48.0801C22.0153 48.5546 22.3658 49.0671 22.7213 49.5777L23.2115 50.3765C23.3781 50.6415 23.5089 50.9295 23.6587 51.2062C23.9712 51.826 24.5211 52.7966 24.7461 53.464C24.7571 53.4964 24.1584 54.0513 22.9501 55.1286Z" fill="#C08D5D"/>
</g>
<defs>
<clipPath id="clip0">
<rect x="12.5569" width="26.0805" height="57.9566" fill="white"/>
</clipPath>
<clipPath id="clip1">
<rect width="13.0402" height="28.9783" transform="matrix(-0.760439 0.649409 0.649409 0.760439 9.91638 28.4953)" fill="white"/>
</clipPath>
</defs>
</svg>
