<svg width="145" height="145" viewBox="0 0 145 145" fill="none" xmlns="http://www.w3.org/2000/svg">
    <circle cx="72.5" cy="72.5" r="72.5" fill="#00214D"/>
    <path d="M111.46 80.5186C111.381 79.6242 109.103 58.6221 72 58.6221C34.9753 58.6221 32.6237 79.6171 32.5416 80.5104L32.5314 80.7269C32.5314 94.9356 45.8322 94.9356 54.6338 94.9356H89.3661C98.1676 94.9356 111.468 94.9356 111.468 80.7269L111.46 80.5186ZM89.3668 90.1994H54.6345C42.6938 90.1994 37.3292 88.8471 37.2683 80.8641C37.4382 79.6304 39.357 69.3614 55.847 65.1525L52.9263 74.7164C52.8347 75.014 52.8028 75.3267 52.8323 75.6367C52.8617 75.9467 52.952 76.2478 53.098 76.5228C53.244 76.7978 53.4428 77.0414 53.683 77.2395C53.9233 77.4376 54.2002 77.5864 54.498 77.6773C54.7958 77.7682 55.1086 77.7996 55.4185 77.7695C55.7284 77.7394 56.0293 77.6484 56.3041 77.5019C56.5788 77.3553 56.8219 77.1561 57.0195 76.9154C57.2171 76.6748 57.3654 76.3976 57.4557 76.0996L61.1193 64.1019C64.487 63.6237 67.8839 63.3792 71.2855 63.3703L67.821 74.7167C67.6376 75.3174 67.7004 75.9663 67.9954 76.5206C68.2904 77.075 68.7936 77.4895 69.3943 77.6729C69.9949 77.8563 70.6438 77.7936 71.1982 77.4986C71.7526 77.2035 72.1671 76.7003 72.3505 76.0997L76.1773 63.5677C76.1868 63.5352 76.1884 63.502 76.1954 63.4689C79.4217 63.6089 82.6329 63.991 85.802 64.6119L82.7187 74.7167C82.6279 75.0141 82.5966 75.3265 82.6265 75.636C82.6564 75.9455 82.747 76.2461 82.8931 76.5206C83.0392 76.7952 83.2379 77.0382 83.4779 77.2359C83.7179 77.4336 83.9945 77.5821 84.2919 77.6729C84.5893 77.7637 84.9017 77.7951 85.2112 77.7652C85.5208 77.7352 85.8214 77.6446 86.0959 77.4986C86.3704 77.3525 86.6134 77.1537 86.8111 76.9137C87.0088 76.6737 87.1573 76.3971 87.2481 76.0997L90.3993 65.777C104.928 70.3169 106.589 79.7687 106.731 80.8555C106.675 88.8462 101.312 90.1994 89.3668 90.1994Z" fill="white"/>
    <path d="M59.2096 50.239H63.5915C68.8519 43.8483 58.3328 37.4566 63.5915 31.0643H59.2096C53.9493 37.4566 64.47 43.8483 59.2096 50.239Z" fill="white"/>
    <path d="M69.8078 50.239H74.1914C79.4518 43.8483 68.9302 37.4566 74.1914 31.0643H69.8078C64.5475 37.4566 75.0682 43.8483 69.8078 50.239Z" fill="white"/>
    <path d="M80.4075 50.239H84.7909C90.0513 43.8483 79.5306 37.4566 84.7909 31.0643H80.4075C75.1471 37.4566 85.6678 43.8483 80.4075 50.239Z" fill="white"/>
</svg>
