<svg width="145" height="145" viewBox="0 0 145 145" fill="none" xmlns="http://www.w3.org/2000/svg">
    <circle cx="72.5" cy="72.5" r="72.5" fill="#00214D"/>
    <path d="M106.657 64.5249C106.655 64.3855 106.641 64.2466 106.615 64.1097C106.544 59.556 104.688 55.2124 101.444 52.015C98.2014 48.8176 93.8319 47.0225 89.2777 47.0167H88.9139L39.3436 62.6235V74.8056L41.3274 75.1318C42.572 75.3362 43.7034 75.9762 44.5197 76.9376C45.336 77.8989 45.7842 79.1191 45.7842 80.3803C45.7842 81.6415 45.336 82.8617 44.5197 83.823C43.7034 84.7844 42.572 85.4244 41.3274 85.6288L39.3436 85.9546V90.6908C39.3463 92.8894 40.2209 94.9972 41.7756 96.5518C43.3303 98.1063 45.4382 98.9808 47.6368 98.9833H98.3216C100.52 98.9808 102.628 98.1063 104.183 96.5518C105.737 94.9972 106.612 92.8894 106.615 90.6908L106.621 64.8767C106.642 64.7605 106.654 64.6429 106.657 64.5249ZM89.6275 51.7576C92.5254 51.8431 95.3055 52.9235 97.5005 54.8173C99.6956 56.7111 101.172 59.3028 101.681 62.1568H56.5978L89.6275 51.7576ZM98.3223 94.2479H47.6368C46.694 94.2468 45.79 93.8719 45.1232 93.2052C44.4564 92.5386 44.0812 91.6347 44.0799 90.6918V89.7674C45.9756 89.036 47.6055 87.7478 48.7549 86.0723C49.9044 84.3968 50.5196 82.4125 50.5196 80.3807C50.5196 78.3488 49.9044 76.3645 48.7549 74.689C47.6055 73.0135 45.9756 71.7253 44.0799 70.9939V66.8924H101.884L101.878 90.691C101.877 91.6339 101.503 92.538 100.836 93.2048C100.169 93.8716 99.2652 94.2467 98.3223 94.2479Z" fill="white"/>
    <path d="M61.9475 69.7237C60.601 69.7236 59.2846 70.1229 58.165 70.871C57.0454 71.6191 56.1727 72.6824 55.6574 73.9264C55.142 75.1705 55.0072 76.5394 55.2698 77.8601C55.5325 79.1808 56.1809 80.3939 57.1331 81.3461C58.0852 82.2983 59.2983 82.9467 60.619 83.2095C61.9397 83.4722 63.3086 83.3374 64.5527 82.8221C65.7968 82.3068 66.8601 81.4342 67.6082 80.3145C68.3563 79.1949 68.7557 77.8786 68.7557 76.532C68.7536 74.727 68.0357 72.9965 66.7594 71.7201C65.4831 70.4438 63.7526 69.7258 61.9475 69.7237ZM61.9475 78.6041C61.5377 78.6042 61.137 78.4827 60.7963 78.255C60.4555 78.0274 60.1898 77.7037 60.033 77.3251C59.8761 76.9465 59.8351 76.5298 59.915 76.1278C59.9949 75.7259 60.1923 75.3566 60.4821 75.0668C60.7719 74.777 61.1411 74.5797 61.5431 74.4997C61.9451 74.4198 62.3617 74.4608 62.7404 74.6177C63.119 74.7746 63.4426 75.0402 63.6703 75.381C63.898 75.7218 64.0195 76.1224 64.0194 76.5323C64.0186 77.0815 63.8001 77.608 63.4117 77.9964C63.0233 78.3848 62.4968 78.6033 61.9475 78.6041V78.6041Z" fill="white"/>
    <path d="M76.1583 79.0651C74.8898 79.0651 73.6498 79.4413 72.5951 80.146C71.5404 80.8508 70.7184 81.8524 70.2329 83.0244C69.7475 84.1963 69.6205 85.4859 69.868 86.73C70.1155 87.9741 70.7263 89.1169 71.6233 90.0139C72.5202 90.9108 73.663 91.5217 74.9071 91.7691C76.1512 92.0166 77.4408 91.8896 78.6127 91.4042C79.7847 90.9188 80.7864 90.0968 81.4911 89.0421C82.1959 87.9873 82.572 86.7474 82.572 85.4789C82.5701 83.7784 81.8938 82.1482 80.6914 80.9458C79.489 79.7434 77.8587 79.067 76.1583 79.0651ZM76.1583 87.1561C75.8265 87.1561 75.5022 87.0577 75.2264 86.8734C74.9506 86.6891 74.7356 86.4271 74.6086 86.1205C74.4817 85.814 74.4485 85.4767 74.5132 85.1514C74.578 84.826 74.7378 84.5271 74.9724 84.2925C75.207 84.0579 75.5059 83.8982 75.8313 83.8335C76.1567 83.7688 76.4939 83.802 76.8004 83.929C77.1069 84.056 77.3689 84.271 77.5532 84.5469C77.7375 84.8228 77.8358 85.1471 77.8358 85.4789C77.8354 85.9236 77.6585 86.35 77.344 86.6645C77.0295 86.979 76.6031 87.1558 76.1583 87.1561Z" fill="white"/>
    <path d="M90.3679 70.2503C89.1255 70.2501 87.9109 70.6184 86.8777 71.3085C85.8445 71.9987 85.0392 72.9797 84.5636 74.1276C84.088 75.2754 83.9635 76.5385 84.2058 77.7571C84.4481 78.9757 85.0463 80.0951 85.9248 80.9737C86.8033 81.8524 87.9226 82.4507 89.1412 82.6932C90.3598 82.9356 91.6229 82.8113 92.7708 82.3358C93.9187 81.8604 94.8998 81.0552 95.5901 80.0222C96.2804 78.9891 96.6488 77.7745 96.6488 76.5321C96.6469 74.8668 95.9845 73.2703 94.8071 72.0927C93.6296 70.915 92.0332 70.2525 90.3679 70.2503ZM90.3679 78.0777C90.0622 78.0779 89.7633 77.9874 89.509 77.8177C89.2547 77.648 89.0565 77.4066 88.9394 77.1242C88.8222 76.8418 88.7915 76.531 88.851 76.2312C88.9106 75.9313 89.0577 75.6558 89.2738 75.4396C89.4899 75.2233 89.7653 75.076 90.0652 75.0163C90.365 74.9566 90.6758 74.9871 90.9583 75.1041C91.2408 75.2211 91.4822 75.4192 91.6521 75.6733C91.8219 75.9275 91.9126 76.2264 91.9126 76.5321C91.912 76.9417 91.7491 77.3344 91.4596 77.6241C91.1701 77.9138 90.7775 78.0769 90.3679 78.0777Z" fill="white"/>
</svg>
